<?xml version="1.0" standalone="no"?>
<!DOCTYPE svg PUBLIC "-//W3C//DTD SVG 1.1//EN" "http://www.w3.org/Graphics/SVG/1.1/DTD/svg11.dtd" >
<svg xmlns="http://www.w3.org/2000/svg" xmlns:xlink="http://www.w3.org/1999/xlink" version="1.1" viewBox="-10 0 266 256">
   <path fill="currentColor"
d="M185 48q3 5 -2 8q-7 4 -10 14q-8 35 -27 45q-5 3 -8 7q-2 4 -6 0q-2 -3 -8 -6q-4 -3 -12 -11l-9 3q-6 1 -8 2l2 2q1 2 1 3q0 3 -3 4q-9 -3 -13 -7q-4 -6 -9 -8q-3 -2 2 -12q-17 -24 -12 -52q1 -4 1 -1q2 7 3 17q1 3 1 5q0 9 5 19h2q15 -5 26 -10q0 -26 -4 -30q-3 0 -8 1
h-5q-3 0 0 -2q23 -10 68 -13q15 -3 33 22zM100 103q1 -13 1 -25q-2 0 -7 1q-14 3 -20 3q7 19 17 25q5 -1 9 -4zM154 27q-23 1 -47 10q7 5 5 12q0 1 -1 4q-1 9 -1 14q6 -2 11 -6q2 -4 19 -2q3 0 3 1q-1 2 -3 3t-5 2q-14 5 -25 10v11q-1 10 -1 15q15 -5 23 -8q0 -3 1 -3
q0 -1 3 0q5 0 11 2q2 1 2 3q0 1 -3 1q-9 0 -23 5q-3 1 -5 2q6 7 17 8q9 0 16 -9q14 -14 19 -58q-1 -14 -16 -17zM185 101q22 4 38 14q5 5 -1 10q-7 1 -10 -3q-11 -12 -27 -19q-4 -3 0 -2zM110 124q5 3 14 6q3 1 4 5q0 3 -3 3q-9 3 -17 -12q-3 -4 2 -2zM167 144q-8 -6 1 -2
q30 14 57 36q5 5 0 7q-4 0 -7 2q-37 18 -79 12q-41 -7 -62 -35q-3 -5 1 -1q55 52 129 25q6 -3 2 -8q-13 -19 -42 -36zM53 156q-3 4 -5 16q0 5 2 11q-2 8 -8 4q-3 -3 -2 -17q0 -5 2 -6q5 -3 9 -9q4 -4 2 1z" />
</svg>
