<?xml version="1.0" standalone="no"?>
<!DOCTYPE svg PUBLIC "-//W3C//DTD SVG 1.1//EN" "http://www.w3.org/Graphics/SVG/1.1/DTD/svg11.dtd" >
<svg xmlns="http://www.w3.org/2000/svg" xmlns:xlink="http://www.w3.org/1999/xlink" version="1.1" viewBox="-10 0 266 256">
   <path fill="currentColor"
d="M128 0q17 2 14 10v14q9 -3 12 -6q2 -3 5 -1h10q6 0 10 3q-1 5 -6 5q-8 -1 -18 3h-2q-4 1 -11 4v18q7 -3 21 -4l12 -3q6 -2 8 0q3 3 8 7q4 4 8 6q1 2 -1 4q-9 1 -13 23q-7 33 -18 32q-12 4 -22 -2q-1 -2 2 -2q20 2 27 -10q8 -21 7 -46q-1 -9 -10 -8q-14 3 -29 9v16
q4 -2 4 -5q0 -1 3 -1q5 0 8 -1q9 -1 7 3q1 2 -4 3q-6 1 -18 7v15q14 -5 21 -5q5 0 4 3q0 4 -3 3q-7 1 -22 5q-3 13 -7 21q-2 3 -2 0v-8q1 -7 1 -10h-1q-6 2 -12 1q3 3 0 7q-3 3 -9 -2q-4 -5 -12 -9q-4 -2 3 -10q0 -5 -2 -13q0 1 -1 -2q-3 -5 1 -15q0 -5 28 -25q-21 3 -33 -1
q-2 -2 1 -2q12 0 36 -4q-2 -22 -6 -25q0 -2 1 -2zM134 35q-15 9 -23 16l-3 3q-4 4 -4 9q7 -3 30 -11v-17zM134 58q-4 1 -10 4q-1 0 -7 1q-2 1 -6 1q-5 1 -7 1q0 5 4 15q2 3 2 4q1 0 3 -1q3 -2 5 -2q1 -1 5 -2q8 -3 12 -5q0 -10 -1 -16zM135 81q-15 6 -24 7q0 1 1 1q2 6 8 12
q4 -1 11 -4q2 -1 3 -1q1 -2 1 -15zM186 10q-1 -2 1 -1q22 6 21 11q1 1 0 1q-1 1 -1 2l-1 1q0 1 -2 0q-6 -1 -12 -9q-2 -4 -6 -5zM70 31q6 4 8 12q2 2 -6 10q2 2 -4 16q-8 26 -10 74q12 2 30 -5q7 -2 22 -6q31 -8 38 -9q-1 -2 -5 -3q-2 -1 2 -3q2 0 5 1q3 0 6 2q2 1 3 1
q23 -5 46 -6q0 -1 2 -3q-2 2 1 -2q4 -4 6 -1q8 3 17 8q9 3 14 8q0 2 -3 5q-4 -2 -11 -6l-4 -2q-7 -5 -27 -2q-12 0 -34 5q2 0 0 4q-3 6 -2 13q9 54 -2 72q-3 4 -7 10q-1 1 -4 -1l-1 -1q0 -1 -3 -3q-9 -4 -15 -11q-1 -1 1 0q11 4 19 4q3 0 6 -4q-1 0 1 -2q10 -27 -7 -79
q-59 13 -78 23q-4 3 -6 0q-1 0 -2 -1l-8 -4q-1 18 0 34q0 13 7 24q8 14 9 21q-3 3 -7 2q-5 -5 -6 -9q-5 -13 -14 -19q-1 -2 0 -6q2 -8 7 -10q-2 -19 -2 -53q1 -29 4 -46q-22 32 -45 48q-2 1 -1 -2q21 -19 51 -75q8 -12 6 -22q1 -2 3 -1zM93 151q-1 -2 2 -2q19 3 33 18
q2 3 0 5q-2 3 -5 1q-4 -2 -9 -6q-2 -1 -3 -2q-10 -10 -18 -14z" />
</svg>
