<?xml version="1.0" standalone="no"?>
<!DOCTYPE svg PUBLIC "-//W3C//DTD SVG 1.1//EN" "http://www.w3.org/Graphics/SVG/1.1/DTD/svg11.dtd" >
<svg xmlns="http://www.w3.org/2000/svg" xmlns:xlink="http://www.w3.org/1999/xlink" version="1.1" viewBox="-10 0 268 256">
   <path fill="currentColor"
d="M98 76q-9 -6 -20 1q-2 1 -3 1q-1 -1 0 -2q9 -9 17 -8q6 1 12 7q5 5 17 14q15 -15 25 -30q3 -5 -2 -6q-2 -1 0 -2l1 -1q9 -2 17 4q0 -1 0 2l-1 1q0 1 -2 1q-7 1 -11 8q-9 12 -23 26q15 11 39 22q12 6 25 5q24 -5 57 1q2 1 1 2q0 1 -2 1q-30 0 -51 4q-15 2 -24 -3
q-22 -11 -48 -30q-51 42 -82 49q-3 0 -1 -2q38 -14 78 -50q-2 -2 -7 -6q-8 -5 -12 -9zM173 27q3 -4 5 -1q1 1 4 1q2 1 4 1q16 8 23 14q2 1 -1 3q-2 4 -8 0q-3 -2 -8 -5q-7 -6 -22 -4q-51 6 -98 21q-9 3 -24 -3q-2 -1 1 -2q12 2 35 -4q57 -13 86 -17q0 -1 2 -3zM147 139
q0 -10 -5 -14q-2 -4 1 -2q17 8 13 10q-3 7 -3 16q-3 28 0 68q0 8 11 18q1 1 0 2q0 1 -3 1q-7 -2 -13 -12q-1 -3 -7 -7q-3 -3 1 -7q2 -3 6 -1q-1 -30 -1 -72zM100 144v6q-2 41 -31 66q-9 7 -2 -2q25 -24 27 -59q0 -13 -5 -19q-3 -3 1 -2q3 1 8 3l1 1q3 -1 1 6zM102 0
q30 5 36 18q2 2 -2 5q-3 2 -6 -1q-4 -4 -13 -2h-3q-7 2 -14 1q-1 -1 0 -1q7 -3 11 -6q3 -1 0 -4q-2 -2 -8 -6q4 2 -2 -2q-2 -3 1 -2z" />
</svg>
