<?xml version="1.0" encoding="UTF-8" standalone="no"?>
<svg
   version="1.1"
   viewBox="-10 0 266 256"
   id="svg4"
   sodipodi:docname="xxxxxuni601D_FZSJSJW--GB1-0.svg"
   inkscape:version="1.1 (c68e22c387, 2021-05-23)"
   xmlns:inkscape="http://www.inkscape.org/namespaces/inkscape"
   xmlns:sodipodi="http://sodipodi.sourceforge.net/DTD/sodipodi-0.dtd"
   xmlns="http://www.w3.org/2000/svg"
   xmlns:svg="http://www.w3.org/2000/svg">
  <defs
     id="defs8" />
  <sodipodi:namedview
     id="namedview6"
     pagecolor="#ffffff"
     bordercolor="#666666"
     borderopacity="1.0"
     inkscape:pageshadow="2"
     inkscape:pageopacity="0.0"
     inkscape:pagecheckerboard="0"
     showgrid="false"
     inkscape:zoom="3.4101562"
     inkscape:cx="133.13173"
     inkscape:cy="126.38717"
     inkscape:window-width="3840"
     inkscape:window-height="2050"
     inkscape:window-x="3348"
     inkscape:window-y="-12"
     inkscape:window-maximized="1"
     inkscape:current-layer="svg4" />
  <path
     fill="currentColor"
     d="M185 48q3 5 -2 8q-7 4 -10 14q-8 35 -27 45q-5 3 -8 7q-2 4 -6 0q-2 -3 -8 -6q-4 -3 -12 -11l-9 3q-6 1 -8 2l2 2q1 2 1 3q0 3 -3 4q-9 -3 -13 -7q-4 -6 -9 -8q-3 -2 2 -12q-17 -24 -12 -52q1 -4 1 -1q2 7 3 17q1 3 1 5q0 9 5 19h2q15 -5 26 -10q0 -26 -4 -30q-3 0 -8 1 h-5q-3 0 0 -2q23 -10 68 -13q15 -3 33 22zM100 103q1 -13 1 -25q-2 0 -7 1q-14 3 -20 3q7 19 17 25q5 -1 9 -4zM154 27q-23 1 -47 10q7 5 5 12q0 1 -1 4q-1 9 -1 14q6 -2 11 -6q2 -4 19 -2q3 0 3 1q-1 2 -3 3t-5 2q-14 5 -25 10v11q-1 10 -1 15q15 -5 23 -8q0 -3 1 -3 q0 -1 3 0q5 0 11 2q2 1 2 3q0 1 -3 1q-9 0 -23 5q-3 1 -5 2q6 7 17 8q9 0 16 -9q14 -14 19 -58q-1 -14 -16 -17zM185 101q22 4 38 14q5 5 -1 10q-7 1 -10 -3q-11 -12 -27 -19q-4 -3 0 -2zM110 124q5 3 14 6q3 1 4 5q0 3 -3 3q-9 3 -17 -12q-3 -4 2 -2zM167 144q-8 -6 1 -2 q30 14 57 36q5 5 0 7q-4 0 -7 2q-37 18 -79 12q-41 -7 -62 -35q-3 -5 1 -1q55 52 129 25q6 -3 2 -8q-13 -19 -42 -36zM53 156q-3 4 -5 16q0 5 2 11q-2 8 -8 4q-3 -3 -2 -17q0 -5 2 -6q5 -3 9 -9q4 -4 2 1z"
     id="path2"
     style="fill:none;stroke:#009186;stroke-opacity:1" />
  <path
     style="fill:none;stroke:#000000;stroke-width:1px;stroke-linecap:butt;stroke-linejoin:miter;stroke-opacity:1"
     d="m 63,40 c 0,0 10,64 10,64 l 22,15"
     id="path1390" />
  <path
     style="fill:none;stroke:#000000;stroke-width:1px;stroke-linecap:butt;stroke-linejoin:miter;stroke-opacity:1"
     d="M 73.280641,42.226804 154,27 c 0,0 27.19359,7.016037 27.19359,25.783505 0,18.767469 -34.01604,64.806415 -34.01604,64.806415 L 122.252,109.67239"
     id="path1392" />
  <path
     style="fill:none;stroke:#000000;stroke-width:1px;stroke-linecap:butt;stroke-linejoin:miter;stroke-opacity:1"
     d="M 73,80 140,59"
     id="path1394" />
  <path
     style="fill:none;stroke:#000000;stroke-width:1px;stroke-linecap:butt;stroke-linejoin:miter;stroke-opacity:1"
     d="M 82,112 158.32073,88.558992"
     id="path1396" />
  <path
     style="fill:none;stroke:#000000;stroke-width:1px;stroke-linecap:butt;stroke-linejoin:miter;stroke-opacity:1"
     d="m 107,37 -4,71"
     id="path1398" />
  <path
     style="fill:none;stroke:#000000;stroke-width:1px;stroke-linecap:butt;stroke-linejoin:miter;stroke-opacity:1"
     d="m 53,156 -13,14 2,17"
     id="path1400" />
  <path
     style="fill:none;stroke:#000000;stroke-width:1px;stroke-linecap:butt;stroke-linejoin:miter;stroke-opacity:1"
     d="m 77,164 c 0,0 62.19359,66.71019 148,21"
     id="path1402" />
  <path
     style="fill:none;stroke:#000000;stroke-width:1px;stroke-linecap:butt;stroke-linejoin:miter;stroke-opacity:1"
     d="M 225,185 167,144"
     id="path1404" />
  <path
     style="fill:none;stroke:#000000;stroke-width:1px;stroke-linecap:butt;stroke-linejoin:miter;stroke-opacity:1"
     d="m 108,126 17,12"
     id="path1406" />
  <path
     style="fill:none;stroke:#000000;stroke-width:1px;stroke-linecap:butt;stroke-linejoin:miter;stroke-opacity:1"
     d="m 185,101 c 0,0 32.94044,4.1386 37,24"
     id="path1408" />
</svg>
