<?xml version="1.0" encoding="UTF-8" standalone="no"?>
<svg
   version="1.1"
   viewBox="-10 0 268 256"
   id="svg4"
   sodipodi:docname="xxxxxuni9F50_FZSJSJW--GB1-0.svg"
   inkscape:version="1.1 (c68e22c387, 2021-05-23)"
   xmlns:inkscape="http://www.inkscape.org/namespaces/inkscape"
   xmlns:sodipodi="http://sodipodi.sourceforge.net/DTD/sodipodi-0.dtd"
   xmlns="http://www.w3.org/2000/svg"
   xmlns:svg="http://www.w3.org/2000/svg">
  <defs
     id="defs8" />
  <sodipodi:namedview
     id="namedview6"
     pagecolor="#ffffff"
     bordercolor="#666666"
     borderopacity="1.0"
     inkscape:pageshadow="2"
     inkscape:pageopacity="0.0"
     inkscape:pagecheckerboard="0"
     showgrid="false"
     inkscape:zoom="3.4101562"
     inkscape:cx="134.01145"
     inkscape:cy="126.38717"
     inkscape:window-width="3360"
     inkscape:window-height="1780"
     inkscape:window-x="-12"
     inkscape:window-y="1876"
     inkscape:window-maximized="1"
     inkscape:current-layer="svg4" />
  <path
     fill="currentColor"
     d="M98 76q-9 -6 -20 1q-2 1 -3 1q-1 -1 0 -2q9 -9 17 -8q6 1 12 7q5 5 17 14q15 -15 25 -30q3 -5 -2 -6q-2 -1 0 -2l1 -1q9 -2 17 4q0 -1 0 2l-1 1q0 1 -2 1q-7 1 -11 8q-9 12 -23 26q15 11 39 22q12 6 25 5q24 -5 57 1q2 1 1 2q0 1 -2 1q-30 0 -51 4q-15 2 -24 -3 q-22 -11 -48 -30q-51 42 -82 49q-3 0 -1 -2q38 -14 78 -50q-2 -2 -7 -6q-8 -5 -12 -9zM173 27q3 -4 5 -1q1 1 4 1q2 1 4 1q16 8 23 14q2 1 -1 3q-2 4 -8 0q-3 -2 -8 -5q-7 -6 -22 -4q-51 6 -98 21q-9 3 -24 -3q-2 -1 1 -2q12 2 35 -4q57 -13 86 -17q0 -1 2 -3zM147 139 q0 -10 -5 -14q-2 -4 1 -2q17 8 13 10q-3 7 -3 16q-3 28 0 68q0 8 11 18q1 1 0 2q0 1 -3 1q-7 -2 -13 -12q-1 -3 -7 -7q-3 -3 1 -7q2 -3 6 -1q-1 -30 -1 -72zM100 144v6q-2 41 -31 66q-9 7 -2 -2q25 -24 27 -59q0 -13 -5 -19q-3 -3 1 -2q3 1 8 3l1 1q3 -1 1 6zM102 0 q30 5 36 18q2 2 -2 5q-3 2 -6 -1q-4 -4 -13 -2h-3q-7 2 -14 1q-1 -1 0 -1q7 -3 11 -6q3 -1 0 -4q-2 -2 -8 -6q4 2 -2 -2q-2 -3 1 -2z"
     id="path2"
     style="fill:none;fill-opacity:0.47744945;stroke:#000000;stroke-opacity:1" />
  <path
     style="fill:none;stroke:#000000;stroke-width:1px;stroke-linecap:butt;stroke-linejoin:miter;stroke-opacity:1"
     d="M 103,4 127.53036,12.902635 100,20"
     id="path1010" />
  <path
     style="fill:none;stroke:#000000;stroke-width:1px;stroke-linecap:butt;stroke-linejoin:miter;stroke-opacity:1"
     d="M 49,52 176.79496,32.256586 198.2016,38.12142"
     id="path1012" />
  <path
     style="fill:none;stroke:#000000;stroke-width:1px;stroke-linecap:butt;stroke-linejoin:miter;stroke-opacity:1"
     d="m 78,77 13.16838,-7.208477 c 0,0 84.45361,61.287517 87.97251,55.129437 3.5189,-6.15807 60.40779,-6.15807 59.23483,-3.22566"
     id="path1016" />
  <path
     style="fill:none;stroke:#000000;stroke-width:1px;stroke-linecap:butt;stroke-linejoin:miter;stroke-opacity:1"
     d="m 145,50 8.33562,3.956472 c 0,0 -54.83161,80.437568 -113.33562,89.043528"
     id="path1018" />
  <path
     style="fill:none;stroke:#000000;stroke-width:1px;stroke-linecap:butt;stroke-linejoin:miter;stroke-opacity:1"
     d="m 98,137 c 0,0 18.14204,18.57847 -31,77"
     id="path1020" />
  <path
     style="fill:none;stroke:#000000;stroke-width:1px;stroke-linecap:butt;stroke-linejoin:miter;stroke-opacity:1"
     d="m 156,133 -3,84 4.44101,16.12715 L 141,219"
     id="path1022" />
</svg>
